<?xml version="1.0" encoding="UTF-8"?><svg id="Layer_1" xmlns="http://www.w3.org/2000/svg" xmlns:xlink="http://www.w3.org/1999/xlink" viewBox="0 0 32 32"><defs><style>.cls-1{fill:#7f7b74;}.cls-2{fill:none;}.cls-3{clip-path:url(#clippath);}</style></defs><path class="cls-1" d="M16,0C7.18,0,0,7.18,0,16s7.18,16,16,16,16-7.18,16-16S24.82,0,16,0ZM16,30.77c-8.15,0-14.77-6.63-14.77-14.77S7.85,1.23,16,1.23s14.77,6.63,14.77,14.77-6.63,14.77-14.77,14.77Z"/><path class="cls-1" d="M20.99,11.01c-.32-.32-.84-.32-1.15,0l-3.84,3.84-3.84-3.84c-.32-.32-.84-.32-1.15,0-.32.32-.32.84,0,1.15l3.84,3.84-3.84,3.84c-.32.32-.32.84,0,1.15.16.16.37.24.58.24s.42-.08.58-.24l3.84-3.84,3.84,3.84c.16.16.37.24.58.24s.42-.08.58-.24c.32-.32.32-.84,0-1.15l-3.84-3.84,3.84-3.84c.32-.32.32-.84,0-1.15Z"/><g class="cls-3"></g></svg>