<?xml version="1.0" encoding="UTF-8"?><svg id="Layer_1" xmlns="http://www.w3.org/2000/svg" xmlns:xlink="http://www.w3.org/1999/xlink" viewBox="0 0 895.98 217.45"><defs><style>.cls-1{fill:#00867d;}.cls-2{fill:none;}.cls-3{fill:#389d8e;}.cls-4{clip-path:url(#clippath-2);}.cls-5{opacity:.5;}</style></defs><rect class="cls-3" x="0" y=".04" width="895.98" height="217.41" rx="14.6" ry="14.6"/><g class="cls-4"><g class="cls-5"><path class="cls-1" d="M897.87,79.13v-9.12c-4.47-21.36-5.6-42.28,0-65.64V-3.5c-8.83,30.02-6.64,55.69,0,82.62Z"/><path class="cls-1" d="M897.87,99.36v-5.35c-16.78-41.31-25.47-73.39-8.46-117.95,3-7.86,5.59-13.99,8.46-18.79v-3.72c-3.67,5.3-6.75,12.36-10.35,21.79-17.9,46.89-7.81,80.02,10.35,124.02Z"/><path class="cls-1" d="M874.53-37.33c-20.39,49.68-7.13,78.6,11.22,118.62,3.04,6.64,6.17,13.47,9.3,20.73.93,1.79,1.87,3.61,2.83,5.47v-3.98c-3.46-8.13-6.93-15.72-10.29-23.05-18.13-39.56-31.24-68.14-11.18-117,6.61-16.11,12.28-24.22,21.47-28.62v-2.2c-10.12,4.5-16.32,12.94-23.35,30.05Z"/><path class="cls-1" d="M858.33-41.87c-7.25,19.61-13.28,40.96-8.3,64.1,3.44,16.01,12.93,30.31,22.1,44.13,4.92,7.41,10,15.08,13.94,22.75,1.68,3.26,3.47,6.72,5.35,10.33,1.56,3,3.19,6.13,4.84,9.34.54.89,1.07,1.79,1.61,2.69v-4c-.96-1.85-1.9-3.68-2.83-5.47-.61-1.18-1.22-2.35-1.82-3.5-1.88-3.61-3.68-7.06-5.35-10.32-3.99-7.77-9.11-15.49-14.06-22.95-9.07-13.67-18.45-27.81-21.81-43.44-4.86-22.64,1.08-43.65,8.22-62.97,9.97-26.96,18.15-33.81,37.64-37.78v-2.06c-20.23,4.07-29.2,11.15-39.54,39.13Z"/><path class="cls-1" d="M893.57,108.28c1.42,2.55,2.85,5.13,4.3,7.75v-.55c-1.54-2.64-3.09-5.23-4.62-7.78.11.2.21.38.32.58Z"/><path class="cls-1" d="M843.57-50.44c-5.31,13.94-11.16,32.37-9.22,51.22,2.26,21.91,14.78,39.09,27.15,55.63,3.31,3.97,6.46,8.03,9.2,12.2l1.44,2.18c6.38,9.69,14.53,22.08,22.91,35.97-4.17-7.5-8.11-14.6-11.53-21.16-5.4-10.35-12.56-19.93-19.49-29.18-12.49-16.69-25.41-33.95-27.67-55.85-1.9-18.43,3.87-36.55,9.1-50.29,11.95-31.37,22.09-36.11,52.41-41.7v-2.06c-30.81,5.67-41.97,10.66-54.31,43.03Z"/><path class="cls-1" d="M829.87-61.2c-8.09,20.96-14.47,43.7-6.39,67.88,5.17,15.49,16.47,28.24,27.39,40.56,6.39,7.22,13,14.68,18.13,22.47l1.43,2.18c6.35,9.65,14.47,21.98,22.82,35.81,1.54,2.54,3.08,5.14,4.62,7.78v-4c-.54-.91-1.07-1.8-1.61-2.69-.41-.68-.82-1.37-1.23-2.04-8.38-13.89-16.53-26.28-22.91-35.97l-1.44-2.18c-2.74-4.17-5.89-8.23-9.2-12.2-2.97-3.57-6.06-7.06-9.1-10.5-10.79-12.17-21.94-24.76-26.98-39.86-7.87-23.57-1.59-45.9,6.36-66.5,12.48-32.34,27.59-35.57,60.74-42.68,1.85-.4,3.63-.84,5.36-1.31v-2.1c-1.88.53-3.83,1.01-5.84,1.44-32.82,7.03-49.28,10.56-62.16,43.92Z"/><path class="cls-1" d="M812.34-61.75c-4.95,15.6-9.49,32.28-6.12,49.51,4.34,22.19,19.5,37.87,34.17,53.03,8.6,8.89,17.49,18.08,24.13,28.5,3.15,4.93,6.91,10.6,10.9,16.6,6.95,10.46,14.78,22.25,22.45,34.74v-3.85c-7.13-11.48-14.32-22.33-20.76-32.02-3.98-5.99-7.74-11.66-10.88-16.57-6.75-10.6-15.72-19.86-24.39-28.82-15.13-15.63-29.41-30.4-33.64-52.01-3.28-16.76,1.2-33.15,6.06-48.51,9.12-28.79,21.64-41.32,49.77-48.83h-7.19c-24.37,7.91-35.88,20.98-44.51,48.21Z"/><path class="cls-1" d="M798.39-71.28c-6.92,20.65-12.8,42.8-2.36,66.67,6.9,15.78,19.99,27.59,32.65,39.02,7.44,6.71,15.12,13.65,21.31,21.22,16.16,19.79,32.46,44.44,47.89,72.29v-4.15c-14.96-26.66-30.7-50.29-46.32-69.42-6.28-7.69-14.03-14.68-21.52-21.45-12.5-11.29-25.43-22.95-32.15-38.33-10.15-23.21-4.36-44.94,2.43-65.21,6.91-20.6,15.48-31.91,28.24-39.33h-3.93c-11.59,7.63-19.65,19.03-26.24,38.68Z"/><path class="cls-1" d="M776.91-20.76c6.14,23.13,23.79,38.23,40.85,52.83,9.39,8.03,19.09,16.34,26.73,25.86,20.92,26.09,38.79,51.66,53.37,76.29v-3.98c-14.3-23.8-31.65-48.45-51.79-73.58-7.76-9.67-17.54-18.04-27-26.14-16.83-14.4-34.24-29.29-40.21-51.81-5.16-19.47.32-36.55,6.13-54.63,5.03-15.66,11.38-26.3,19.84-34.06h-3.02c-7.89,7.82-13.91,18.36-18.76,33.44-5.9,18.37-11.47,35.73-6.16,55.77Z"/><path class="cls-1" d="M766.6-10.37c8.54,17.01,23.61,28.6,38.19,39.81,7.76,5.97,15.79,12.15,22.62,19.01,22.63,22.76,45.57,53.12,70.14,92.82l.33.53v-3.83c-24.12-38.73-46.72-68.51-69.03-90.94-6.92-6.96-15.01-13.18-22.82-19.19-14.39-11.07-29.28-22.52-37.61-39.12-11.49-22.9-6.71-43.65.19-66.47,4.22-13.93,9.34-24.26,15.79-32.22h-2.47c-6.2,7.99-11.19,18.2-15.26,31.64-7.04,23.24-11.9,44.4-.06,67.96Z"/><path class="cls-1" d="M747.68-17.46c9.16,23.06,29.13,38.14,48.43,52.71,10.84,8.19,22.05,16.65,31.02,26.35,23.17,25.07,49.63,55.23,70.75,89.17v-3.8c-20.91-32.96-46.64-62.27-69.26-86.74-9.09-9.83-20.37-18.35-31.28-26.6-19.08-14.41-38.81-29.31-47.77-51.85-9.33-23.48-2.42-44.41,4.9-66.58,3.22-9.74,6.68-18.03,11.33-25.18h-2.21c-4.17,6.69-7.81,14.72-11.05,24.55-7.44,22.52-14.46,43.8-4.86,67.96Z"/><path class="cls-1" d="M736.82-86.91c-7.62,21.03-14.82,40.9-8.27,63.87,7.96,27.95,30.93,44.37,53.15,60.25,8.57,6.12,17.42,12.46,25.14,19.3,27.97,24.79,54.54,53.99,76.83,84.45l2.48,3.38c3.51,4.76,7.64,10.37,11.72,16.47v-3.62c-3.54-5.17-7.05-9.93-10.09-14.06l-2.48-3.37c-22.38-30.57-49.05-59.88-77.13-84.77-7.8-6.91-16.7-13.27-25.31-19.43-21.93-15.68-44.61-31.89-52.38-59.15-6.37-22.35.73-41.91,8.24-62.63l1.72-4.75c2.6-7.25,5.29-13.52,8.29-18.99h-2.32c-2.83,5.33-5.4,11.37-7.89,18.3l-1.71,4.75Z"/><path class="cls-1" d="M712.76-16.65c9.65,29.43,34.84,46.89,59.2,63.78,7.64,5.3,15.55,10.78,22.72,16.49,30.21,24.04,56.85,50.27,79.21,77.97,1.02,1.26,2.09,2.57,3.21,3.94,6.52,7.98,14.6,17.89,20.78,28.42v-3.9c-5.97-9.57-13.23-18.48-19.21-25.8-1.11-1.36-2.19-2.68-3.2-3.93-22.45-27.82-49.21-54.16-79.52-78.29-7.22-5.75-15.16-11.25-22.83-16.57-24.09-16.69-48.99-33.96-58.43-62.74-8.52-25.96-.04-48.27,8.93-71.9,2.89-7.63,5.67-14.55,8.77-20.78h-2.27c-2.95,6.07-5.62,12.74-8.4,20.06-8.7,22.92-17.7,46.62-8.96,73.25Z"/><path class="cls-1" d="M704.73-87.07c-10.99,25.17-19.86,52.16-10.49,79.04,10.99,31.53,39.55,49.79,67.17,67.44,6.73,4.31,13.1,8.37,19.22,12.63,31.83,22.16,59.5,45.99,82.24,70.83l2.54,2.76c13.35,14.47,35.7,38.68,31.45,58.83-4.85,22.99-44.28,41.98-65.46,52.18l-3.4,1.64c-20.54,9.97-43.3,18.88-70.44,16.6-4.83-.4-10.7-1.61-17.11-3.17-7.38-.84-16.97-3.14-27.9-5.77-13.63-3.28-28.8-6.93-42.66-8.37-9.92.14-18.65,2.27-25.14,7.68-9.2,7.65-12.23,24.32-13.68,38.8h2.04c1.42-14.07,4.34-30.09,12.94-37.24,16.62-13.82,50.95-4.57,78.54,2.86,12.41,3.35,24.14,6.5,32.8,7.23,27.62,2.32,50.69-6.71,71.49-16.8l3.4-1.64c20.48-9.86,57.76-27.83,65.6-50.24v-18.88c-4.91-16.83-20.6-33.84-30.98-45.09l-2.54-2.75c-22.85-24.95-50.63-48.88-82.58-71.12-6.15-4.28-12.53-8.36-19.29-12.68-27.33-17.47-55.59-35.53-66.34-66.41-9.14-26.22-.39-52.77,10.43-77.56,1.33-3.06,2.59-6.01,3.81-8.87,2.25-5.29,4.36-10.24,6.54-14.84h-2.24c-2.04,4.38-4.04,9.06-6.16,14.04-1.21,2.85-2.47,5.8-3.8,8.85Z"/><path class="cls-1" d="M693.32-90.45c-9.75,25.92-19.84,52.73-11.22,82.54,10.88,37.7,43.06,57.95,74.17,77.55,3.15,1.98,6.29,3.96,9.4,5.95,34.28,21.94,60.54,42.68,82.64,65.3,1.23,1.26,2.56,2.59,3.95,3.99,13.64,13.71,34.27,34.42,30.51,53.46-4.54,23.05-46.17,43.56-66.17,53.41l-1.82.9c-27.22,13.44-49.27,18.78-71.51,17.32-6.33-.42-14.86-2.3-24.72-4.65-6.01-.92-12.47-2.12-19.12-3.37-14.36-2.69-29.63-5.55-43.44-6.19-1.91-.06-3.82-.1-5.72-.13-.64,0-1.27,0-1.9.02-7.65,1.16-14.17,3.82-18.8,8.72-7.76,8.2-10.59,24.42-11.85,39.7h2.03c1.23-14.89,3.96-30.56,11.29-38.3,8.08-8.54,22.56-9.87,38.84-8.17,13.86,1.45,29.03,5.09,42.66,8.37,10.93,2.63,20.51,4.93,27.9,5.77.93.11,1.84.2,2.7.25,22.61,1.49,44.98-3.92,72.54-17.52l1.82-.9c20.3-10,62.53-30.81,67.26-54.84,3.96-20.1-17.12-41.27-31.07-55.28-1.39-1.39-2.71-2.72-3.93-3.97-22.21-22.72-48.59-43.56-83-65.59-3.11-1.99-6.26-3.97-9.41-5.96-30.79-19.39-62.63-39.44-73.31-76.39-8.42-29.16,1.54-55.65,11.17-81.26l1.11-2.95c2.38-6.34,4.54-12.08,6.77-17.28h-2.22c-2.11,5.03-4.18,10.54-6.44,16.57l-1.1,2.94Z"/><path class="cls-1" d="M680.83-90.1c-8.68,25.6-17.66,52.08-10.96,80.32,9.92,41.77,44.18,64.56,81.45,86.08,31.37,18.13,58.91,38.95,81.83,61.89,1.11,1.11,2.34,2.32,3.67,3.62,12.66,12.42,33.84,33.19,31.64,50.64-2.26,17.95-36.97,37.06-53.65,46.25-1.39.77-2.66,1.46-3.78,2.09-19.43,10.87-45.41,23.44-74.04,24.11-9.54.22-22.97-2.29-37.18-4.95-.61-.11-1.23-.23-1.84-.34-3.7-.41-7.48-.85-11.32-1.31-6.19-.74-12.55-1.49-18.89-2.1-3.88-.17-7.81-.33-11.76-.45,13.81.64,29.08,3.5,43.44,6.19,6.65,1.25,13.11,2.45,19.12,3.37,6.93,1.06,13.26,1.74,18.48,1.62,29.07-.67,55.34-13.38,74.98-24.37,1.11-.62,2.38-1.32,3.76-2.08,16.98-9.35,52.29-28.8,54.68-47.77,2.32-18.44-19.31-39.66-32.23-52.34-1.32-1.29-2.55-2.5-3.65-3.6-23.05-23.07-50.72-44-82.25-62.21-36.86-21.3-70.76-43.81-80.49-84.8-6.57-27.67,2.31-53.87,10.91-79.2l1.57-4.64c1.99-5.92,3.86-11.17,5.77-15.88h-2.2c-1.82,4.55-3.6,9.6-5.5,15.23l-1.57,4.64Z"/><path class="cls-1" d="M661.92-.69c14.09,41.7,50.51,62.35,85.73,82.32,40.4,22.9,107.09,71,100.8,105.99-6.65,37-86.53,66.96-117.73,71.03-10.05,1.32-23.51,0-38-1.68-6.92,0-14.48-.31-22.3-.66-.88-.04-1.77-.08-2.66-.12,6.34.6,12.71,1.36,18.89,2.1,3.84.46,7.62.9,11.32,1.31,12.51,1.37,24.02,2.24,33.01,1.06,15-1.96,43.02-10.18,69.07-23.58,20.9-10.75,46.6-27.99,50.4-49.11,7.99-44.46-90.54-101.73-101.8-108.11-34.89-19.78-70.96-40.24-84.81-81.21-9.93-29.39-2.73-58.28,6.21-87.76,2.43-8.01,4.61-14.91,6.92-20.87h-2.18c-2.24,5.89-4.35,12.61-6.67,20.28-9.04,29.8-16.31,59.04-6.19,89Z"/><path class="cls-1" d="M722.06,73.69c25.56,14.75,52.46,31.88,76.05,57.18.86.92,1.8,1.92,2.81,2.98,11.44,12.1,30.6,32.35,28.62,48.44-2.01,16.47-34.48,36.01-48.35,44.36l-1.98,1.19c-23.33,14.11-47.44,22.96-71.62,26.28-9.92,1.36-23.11.78-37.07.16-.87-.04-1.76-.08-2.64-.12-3.85-.17-7.76-.33-11.68-.44-18.69.9-38.55,2.1-54.61,7.32-2.04,1.06-3.96,2.24-5.7,3.6-11.15,8.76-14.54,24.23-15.91,39.4h2.04c1.35-14.69,4.63-29.56,15.13-37.81,4.55-3.58,10.34-6,16.88-7.63,4.68-1.17,9.73-1.94,15.04-2.4.61-.05,1.24-.1,1.86-.14,6.24-.46,12.77-.56,19.35-.45,1.91.03,3.82.08,5.72.13,3.95.12,7.88.28,11.76.45.89.04,1.78.08,2.66.12,7.82.35,15.37.67,22.3.66,5.52,0,10.65-.22,15.13-.84,24.48-3.36,48.83-12.29,72.4-26.55l1.98-1.19c14.12-8.5,47.19-28.4,49.32-45.85,2.08-17.03-17.48-37.71-29.17-50.07-1-1.06-1.94-2.06-2.8-2.97-23.78-25.49-50.83-42.73-76.52-57.55-62.3-35.94-84.88-88.26-67.12-155.5,2.74-10.36,5.04-19.08,7.76-26.41h-2.14c-2.67,7.32-4.93,15.89-7.57,25.89-18.02,68.23,4.89,121.31,68.07,157.77Z"/><path class="cls-1" d="M717.74,75.41c25.22,14.25,95.47,63.72,87.73,102.7-6.92,34.87-68.72,59.82-104.15,69.06-.21.05-.42.11-.63.16-11.09,2.78-25.76,3.48-41.27,4.21-5.71.27-11.55.55-17.39.94-17.17,2.34-35.5,4.97-50.65,10.47-6.1,3-11.38,6.86-15.46,11.85-5.73,7.01-7.97,18.25-9.02,29.24h2.04c1.02-10.62,3.18-21.38,8.55-27.96,5.82-7.12,14.24-11.84,24.11-15.05,16.05-5.22,35.92-6.42,54.61-7.32,1.11-.05,2.21-.11,3.31-.16.24-.01.48-.02.72-.03,15.65-.74,30.34-1.42,41.59-4.4,35.88-9.36,98.52-34.77,105.63-70.63,7.97-40.16-63.17-90.41-88.72-104.86-68.5-38.71-90.66-86.94-74.12-161.25,1.95-8.74,3.79-16.12,6.01-22.36h-2.12c-2.17,6.22-3.99,13.46-5.87,21.92-16.55,74.34,6.62,124.75,75.11,163.46Z"/><path class="cls-1" d="M700.17,69.07c7.53,4.62,33.74,21.42,54.91,43.89,21.36,22.67,30.28,43.1,26.51,60.71-5.72,26.74-38.58,49.97-97.65,69.05-10.86,3.51-25.03,5.43-40.03,7.47-16.65,2.26-34.55,4.71-49.85,9.73-1.65.56-3.27,1.13-4.88,1.73-9.19,3.51-17.2,8.11-23.03,14.44-6.56,7.11-10.16,17.15-12.19,27.97h2.06c1.98-10.35,5.44-19.89,11.62-26.6,5.91-6.41,14.2-11.02,23.76-14.5,15.15-5.5,33.48-8.13,50.65-10.47.71-.1,1.43-.2,2.14-.29,15.09-2.05,29.35-3.99,40.38-7.55,59.82-19.32,93.13-43.06,99.01-70.56,3.91-18.3-5.17-39.34-27.02-62.53-21.34-22.65-47.74-39.58-55.32-44.23-61.65-37.79-83.7-86.86-69.39-154.43,1.93-9.12,3.82-16.64,6.08-22.87h-2.18c-2.18,6.24-4.01,13.64-5.87,22.46-14.52,68.52,7.82,118.28,70.31,156.58Z"/><path class="cls-1" d="M694.81,68.53c14.41,9.32,31.58,26.35,43.76,43.39,10.86,15.21,22.97,37.5,18.94,57.34-6.72,33.08-51.65,52.82-78.5,64.61l-1.12.49c-13.15,5.78-29.05,9.46-45.88,13.36-28.94,6.7-58.86,13.63-77.36,32.16-5.91,5.92-10.39,14.29-13.64,24.17h2.02c3.16-9.28,7.46-17.13,13.06-22.74,8.78-8.79,20.29-14.92,33.07-19.67,1.61-.6,3.23-1.17,4.88-1.73,12.24-4.13,25.43-7.2,38.43-10.22,16.93-3.92,32.92-7.62,46.24-13.48l1.12-.49c27.21-11.95,72.75-31.95,79.67-66.06,7.38-36.33-36.79-85.51-63.59-102.84-66.04-42.71-88.58-85.66-77.8-148.25,2-11.6,3.95-20.99,6.83-28.54h-2.11c-2.82,7.61-4.77,16.91-6.71,28.2-10.95,63.53,11.85,107.07,78.7,150.29Z"/><path class="cls-1" d="M616.19-3.73c11.63,21.84,30.5,41.46,61.21,63.59,27.42,19.76,62.27,65.53,53.92,105.41-6.83,32.57-37.65,48.48-64.84,62.51-2.16,1.12-4.3,2.22-6.4,3.32-11.94,6.25-27.1,11.19-43.15,16.42-32.11,10.46-65.31,21.29-81.31,44.59-2.39,3.48-4.46,7.5-6.27,11.94h2.21c1.67-4.02,3.57-7.64,5.73-10.79,15.61-22.74,48.48-33.45,80.27-43.81,16.13-5.26,31.37-10.22,43.46-16.55,2.1-1.1,4.24-2.2,6.39-3.31,27.6-14.24,58.87-30.38,65.9-63.9,8.54-40.77-26.85-87.39-54.71-107.47-51.78-37.32-83.73-76.95-71.39-149.05,1.32-7.74,2.95-14,5.01-19.13h-2.14c-1.99,5.13-3.58,11.3-4.86,18.79-5.82,34.01-2.22,62.61,10.99,87.44Z"/><path class="cls-1" d="M596.3-21.19c6.78,18.51,17.48,31.71,29.94,43.18,1.45,1.17,2.9,2.34,4.36,3.52,5.08,4.09,10.26,8.27,15.32,12.79,1.23.96,2.46,1.91,3.7,2.87,6.92,5.35,14.06,10.89,21,16.95,26.73,23.32,40.72,65.62,34.01,102.87-8.73,48.55-51.43,65.62-96.64,83.68-32.06,12.81-65.21,26.05-84.4,51.66-1.72,2.29-3.28,4.9-4.72,7.72h2.24c1.26-2.37,2.63-4.54,4.1-6.51,18.85-25.15,51.74-38.29,83.53-51,43.73-17.47,88.95-35.54,97.89-85.2,6.82-37.91-7.44-80.99-34.68-104.76-6.99-6.1-14.16-11.65-21.1-17.02-21.65-16.77-42.09-32.6-52.66-61.45-6.46-17.65-7.99-38.45-4.67-63.57,1.37-10.36,3.19-18.32,5.75-24.51h-2.14c-2.48,6.25-4.28,14.14-5.62,24.24-3.37,25.46-1.81,46.57,4.77,64.53Z"/><path class="cls-1" d="M588.92-17.73c5.24,10.72,11.86,19.09,19.25,26.48,3.07,2.59,6.18,5.09,9.27,7.58,6.76,5.43,13.65,11,19.97,17.33,5.97,4.95,11.92,10.2,17.45,16.18,30.43,32.88,26.79,69.21,22.93,107.68-.33,3.29-.18,6.86-.04,10.31.21,5.1.43,10.37-.86,14.9-4.38,15.32-23.28,26.84-38.47,36.1-3.72,2.27-7.24,4.41-10.25,6.44-12.77,8.59-27.02,15.82-42.09,23.48-27.4,13.91-55.73,28.3-74.24,51.38-.99,1.23-1.92,2.56-2.83,3.93h2.44c.64-.92,1.29-1.82,1.98-2.66,18.24-22.74,46.37-37.03,73.58-50.84,14.47-7.35,29.43-14.94,42.31-23.6,2.97-2,6.47-4.13,10.17-6.39,15.49-9.44,34.77-21.19,39.36-37.27,1.39-4.85,1.16-10.28.94-15.54-.15-3.54-.28-6.87.03-10.02,3.9-38.94,7.58-75.72-23.46-109.26-3.36-3.63-6.86-6.98-10.42-10.16-5.06-4.52-10.24-8.7-15.32-12.79-1.46-1.18-2.92-2.35-4.36-3.52-13.87-11.26-26.71-22.62-35.5-40.61-8.74-17.89-12.25-38.68-10.44-61.81,1.02-13.01,2.92-22.5,6.06-29.54h-2.26c-3.02,7.18-4.83,16.68-5.82,29.38-1.84,23.49,1.74,44.64,10.64,62.85Z"/><path class="cls-1" d="M580.92-19.05c5.09,8.93,11.53,16.22,18.48,22.74,1.03.83,2.07,1.67,3.1,2.49,5.48,4.4,11.09,8.92,16.39,13.9,9.39,7.58,18.87,15.55,26.4,25.62,12.53,16.75,15.03,40.57,14.93,57.61-.05,8.12-2.34,16.8-4.56,25.19-2.23,8.44-4.53,17.17-4.43,25.09.06,4.43,1.72,8.58,3.32,12.58,1.63,4.09,3.18,7.96,3.03,11.92-.53,14.65-15.47,24.5-28.65,33.19-3.29,2.17-6.41,4.22-9.13,6.25-11.76,8.76-26.09,17.17-41.26,26.08-28.71,16.86-60.76,35.68-79.58,60.42h2.58c18.7-23.82,49.97-42.2,78.03-58.67,15.22-8.94,29.59-17.38,41.44-26.2,2.67-1.99,5.76-4.03,9.03-6.18,12.92-8.52,28.99-19.11,29.56-34.81.16-4.39-1.54-8.64-3.17-12.74-1.53-3.84-3.12-7.81-3.17-11.86-.1-7.65,2.06-15.86,4.36-24.55,2.25-8.51,4.57-17.32,4.63-25.7.11-17.35-2.46-41.64-15.33-58.84-2.92-3.9-6.13-7.48-9.49-10.84-6.32-6.33-13.22-11.9-19.97-17.33-3.09-2.48-6.2-4.99-9.27-7.58-9.6-8.09-18.79-17.02-25.49-28.8-12.32-21.63-16.83-43.78-14.2-69.71.86-8.44,2.54-15.02,5.02-20.2h-2.22c-2.36,5.24-3.99,11.78-4.82,20-2.68,26.37,1.91,48.91,14.45,70.92Z"/><path class="cls-1" d="M567.59-27.28c4.13,7.08,9.09,13.05,14.43,18.4,2.12,1.71,4.26,3.4,6.38,5.07,6.98,5.48,14.14,11.13,20.36,17.7,5.44,4.52,10.8,9.3,15.64,14.7,17.19,19.21,17.1,44.79,14.75,67.29-.76,7.28-3.42,15.28-5.98,23-3.29,9.93-6.7,20.19-6.28,29.36.29,6.26,3.69,10.93,6.97,15.44,3.15,4.33,6.12,8.42,6.45,13.76.72,11.41-20.04,26.87-31.19,35.17-2.43,1.81-4.35,3.24-5.6,4.29-13.35,11.21-28.57,21.17-44.68,31.72-25.1,16.43-50.89,33.35-69.28,55.43h2.62c18.14-21.23,43.29-37.71,67.77-53.73,16.17-10.58,31.44-20.58,44.88-31.86,1.2-1.01,3.1-2.42,5.51-4.22,11.46-8.53,32.78-24.42,32-36.92-.37-5.93-3.66-10.45-6.84-14.82-3.25-4.47-6.32-8.69-6.58-14.35-.41-8.79,2.94-18.87,6.17-28.62,2.6-7.83,5.29-15.93,6.07-23.43,2.4-22.93,2.47-49.05-15.25-68.85-2.25-2.51-4.61-4.88-7.03-7.15-5.3-4.99-10.91-9.5-16.39-13.9-1.03-.83-2.06-1.66-3.1-2.49-11.04-8.92-22.13-18.43-30.05-32-9.99-17.1-14.84-36.82-14.03-57.03.43-10.69,2.19-18.63,5.37-24.63h-2.2c-3,6.11-4.78,14.06-5.19,24.55-.82,20.6,4.13,40.7,14.31,58.13Z"/><path class="cls-1" d="M557.22-31.75c4.61,7.08,10.27,12.97,16.29,18.32.63.48,1.26.96,1.88,1.44,5.84,4.46,11.78,9,17,13.92,6.97,5.58,13.83,11.48,19.4,18.48,15.68,19.68,11.94,46.02,7.2,69.16-1.29,6.29-4.35,13.49-7.59,21.12-4.88,11.5-9.93,23.39-9.09,33.03.69,7.93,5.97,12.07,11.07,16.06,4.52,3.54,8.78,6.88,10.1,12.72,2.88,12.71-16.35,28.1-27.84,37.3-2.38,1.91-4.44,3.55-5.86,4.83-13.58,12.24-28.98,23.27-45.29,34.95-23.19,16.61-46.97,33.66-65.12,54.48h2.68c17.86-20.06,41.03-36.65,63.62-52.83,15.64-11.2,31.81-22.77,45.47-35.09,1.37-1.24,3.41-2.87,5.77-4.75,11.86-9.49,31.71-25.38,28.55-39.33-1.48-6.54-6.23-10.26-10.83-13.86-4.98-3.9-9.69-7.59-10.31-14.65-.8-9.14,4.15-20.79,8.94-32.06,3.28-7.72,6.38-15.01,7.71-21.5,4.83-23.59,8.62-50.46-7.6-70.83-1.46-1.83-3.01-3.56-4.61-5.26-6.22-6.57-13.37-12.22-20.36-17.7-2.12-1.67-4.26-3.36-6.38-5.07-8.53-6.89-16.84-14.34-23.11-23.97-10.74-16.5-16.38-34.85-16.3-53.08.05-10.49,1.74-18.23,4.9-24.04h-2.31c-2.98,5.96-4.57,13.74-4.61,24.03-.08,18.62,5.67,37.36,16.63,54.19Z"/><path class="cls-1" d="M528.18-82.49c1.53,17.16,9.45,35.01,22.88,51.63,1.08,1.33,2.26,2.62,3.48,3.9,2.07,1.75,4.1,3.55,6.06,5.42.51.38,1.01.76,1.52,1.14,6.34,4.73,12.78,9.56,18.24,14.81,9.09,7.12,17.67,14.68,22.42,23.75,9.33,17.84,3.02,44.91-2.53,63.72-1.01,3.4-4.39,10.39-8.31,18.47-7.5,15.49-16.01,33.06-15.35,40.08.79,8.41,8.07,11.95,15.12,15.37,5.02,2.44,9.77,4.74,11.92,8.64,8.46,15.34-.81,23.74-12.55,34.37-2.1,1.9-4.26,3.85-6.36,5.9-14.19,13.81-31.12,26.86-49.04,40.67-23.85,18.39-48.25,37.21-67.02,58.66h2.72c18.49-20.76,42.28-39.12,65.55-57.06,17.97-13.85,34.93-26.94,49.21-40.83,2.09-2.03,4.23-3.97,6.31-5.86,11.42-10.34,22.2-20.11,12.96-36.85-2.46-4.46-7.72-7.01-12.81-9.48-6.84-3.32-13.3-6.45-13.98-13.73-.61-6.46,8.13-24.51,15.16-39.01,3.96-8.17,7.37-15.22,8.42-18.78,5.66-19.15,12.06-46.75,2.39-65.23-2.94-5.61-7.24-10.62-12.2-15.29-5.22-4.92-11.16-9.46-17-13.92-.63-.48-1.25-.96-1.88-1.44-7.69-5.88-15.43-11.98-20.87-18.71-13.18-16.31-20.94-33.78-22.44-50.53-1.09-12.2.17-20.94,3.44-27.3h-2.29c-3.09,6.58-4.25,15.42-3.17,27.48Z"/><path class="cls-1" d="M521.51,249.2c18.56-14.91,36.09-29,50.82-43.99,1.85-1.88,3.82-3.76,5.8-5.63,11.9-11.31,25.4-24.13,10.25-40.37-3.15-3.38-8.3-5.7-13.76-8.17-8.47-3.83-17.24-7.78-17.97-15.83-.63-6.96,10.42-27.35,18.49-42.23,4.01-7.4,7.47-13.78,8.63-16.92,5.13-13.82,17.13-46.17,7.95-66.51-2.5-5.53-6.54-10.49-11.36-15.12-5.46-5.25-11.9-10.07-18.24-14.81-.51-.38-1.02-.76-1.52-1.14,2.82,2.69,5.49,5.51,7.93,8.54,9.04,7.03,17.34,14.5,21.34,23.36,8.84,19.59-2.96,51.39-8,64.98-1.12,3.01-4.54,9.34-8.52,16.66-8.65,15.96-19.41,35.82-18.73,43.38.84,9.22,10.15,13.43,19.15,17.49,5.26,2.38,10.24,4.62,13.11,7.7,13.77,14.78,2.14,25.83-10.17,37.52-1.99,1.89-3.98,3.78-5.85,5.68-14.66,14.91-32.14,28.96-50.65,43.83-22.22,17.85-44.91,36.1-63.17,56.44h2.73c17.94-19.68,40.05-37.46,61.71-54.86Z"/><path class="cls-1" d="M503.27-89.37c2.98,27.1,21.2,41.29,38.81,55.02.07.06.15.12.22.17,5.78,4.51,11.64,9.09,16.96,14.16,6.5,6.2,12.18,13.12,15.89,21.55,8.88,20.17-.16,41.84-8.14,60.95-.67,1.61-1.34,3.2-1.99,4.78-2.09,5.09-6.15,11.7-10.44,18.69-8.95,14.58-19.09,31.09-17.22,42.59,1.93,11.84,10.99,15.95,20.58,20.3,7.36,3.34,14.98,6.79,19.55,14.08,10.33,16.46-15.51,38.76-29.4,50.75-2.63,2.27-4.89,4.22-6.51,5.78-12.04,11.57-26.13,22.95-41.05,35-19.61,15.83-39.58,31.97-56.31,49.6h2.81c16.37-17,35.75-32.66,54.78-48.03,14.95-12.08,29.08-23.48,41.18-35.12,1.58-1.52,3.83-3.46,6.43-5.71,14.34-12.38,41.04-35.43,29.79-53.36-4.9-7.8-12.79-11.39-20.43-14.85-9.08-4.12-17.66-8.01-19.42-18.78-1.75-10.75,8.18-26.93,16.95-41.21,4.34-7.07,8.43-13.74,10.59-18.98.65-1.58,1.31-3.17,1.98-4.77,8.13-19.49,17.35-41.58,8.12-62.55-2.23-5.05-5.12-9.57-8.46-13.71-2.44-3.03-5.11-5.85-7.93-8.54-1.96-1.87-3.99-3.66-6.06-5.42-3.56-3.01-7.23-5.89-10.88-8.73-.12-.09-.23-.18-.35-.27-2.67-2.08-5.35-4.18-7.99-6.32-14.45-11.74-27.61-25.12-30.05-47.32-.91-8.27-.37-14.99,1.59-20.37h-2.17c-1.86,5.56-2.34,12.36-1.43,20.59Z"/><path class="cls-1" d="M490.77-91.4c3.73,24.7,21.53,37.98,38.75,50.83,13.81,10.31,26.86,20.04,33.18,35.21,8.29,19.9-1.66,41-10.44,59.62-1.03,2.18-2.05,4.34-3.02,6.46-2.3,5.02-6.42,11.34-10.77,18.03-9.64,14.81-20.57,31.61-18.8,44.07,1.85,13.02,11.86,17.71,22.46,22.67,7.98,3.73,16.23,7.6,21.15,15.36,11.68,18.41-13.71,40.68-28.88,54-2.77,2.43-5.17,4.54-7.04,6.34-12.34,11.9-26.86,23.62-42.24,36.02-18.63,15.03-37.59,30.33-53.86,46.86h2.86c15.88-15.91,34.23-30.72,52.27-45.28,15.41-12.44,29.97-24.18,42.37-36.14,1.84-1.77,4.22-3.86,6.97-6.28,15.66-13.74,41.86-36.73,29.25-56.6-5.24-8.26-13.76-12.25-22-16.1-10.09-4.72-19.62-9.18-21.32-21.12-1.66-11.71,9.05-28.16,18.5-42.68,4.4-6.76,8.55-13.13,10.92-18.29.97-2.12,1.98-4.26,3.01-6.44,8.96-19,19.12-40.54,10.48-61.26-6.53-15.67-20.41-26.03-33.84-36.05-16.89-12.6-34.35-25.63-37.95-49.51-1.09-7.24-.96-13.27.38-18.26h-2.07c-1.29,5.16-1.42,11.29-.32,18.56Z"/><path class="cls-1" d="M478.33-93.89c4.34,22.91,21.81,35.49,38.7,47.64,14.06,10.12,27.34,19.68,33.47,34.69,8.03,19.66-2.48,40.2-11.76,58.33-1.29,2.53-2.56,5.01-3.77,7.45-2.49,5.06-6.55,11.11-10.85,17.52-9.88,14.72-21.08,31.4-19.61,44.91,1.55,14.29,12.19,19.85,23.45,25.74,8.32,4.36,16.93,8.86,21.96,17.25,12.45,20.79-12.87,43.06-29.62,57.8-2.68,2.36-5.21,4.59-7.26,6.53-16.23,15.4-33.4,30.29-50.02,44.7-9.34,8.1-18.99,16.47-28.37,24.84-2.93,2.61-5.95,5.24-9.03,7.91-1,.87-2,1.74-3,2.61h3.09c.41-.36.83-.72,1.24-1.08,3.08-2.68,6.11-5.31,9.04-7.93,9.37-8.36,19.02-16.73,28.35-24.82,16.63-14.42,33.83-29.33,50.08-44.76,2.02-1.91,4.54-4.13,7.21-6.48,17.26-15.18,43.34-38.12,30.02-60.36-5.32-8.88-14.18-13.52-22.76-18.01-10.77-5.63-20.93-10.96-22.37-24.17-1.39-12.78,9.59-29.13,19.27-43.57,4.34-6.46,8.44-12.57,10.99-17.75,1.2-2.43,2.47-4.91,3.75-7.43,9.47-18.52,20.21-39.51,11.83-60.02-6.35-15.55-20.49-25.73-34.16-35.57-16.57-11.93-33.7-24.26-37.89-46.38-1.15-6.05-1.36-11.25-.67-15.7h-2.07c-.66,4.61-.41,9.95.75,16.07Z"/><path class="cls-1" d="M465.87-97.5c4.6,22.12,21.96,34.39,38.74,46.25,14.21,10.04,27.63,19.53,33.74,34.48,7.97,19.5-2.43,39.8-11.61,57.7-1.27,2.47-2.51,4.9-3.69,7.29-2.75,5.56-6.81,11.71-11.12,18.21-9.21,13.92-19.65,29.69-19.4,43.94.26,15.27,9.81,22.56,19.93,30.27,7.38,5.63,15.01,11.45,19.12,20.77,10.25,23.27-14.2,44.99-32.05,60.85-2.6,2.31-5.04,4.48-7.17,6.48-14.86,13.96-30.5,27.56-45.63,40.72-9.68,8.42-19.68,17.12-29.4,25.84-2.93,2.63-5.98,5.28-9.08,7.99-.29.25-.58.5-.87.75h3.09c2.81-2.44,5.57-4.85,8.22-7.23,9.7-8.71,19.7-17.41,29.37-25.82,15.14-13.17,30.8-26.79,45.69-40.77,2.11-1.99,4.53-4.14,7.12-6.44,17.28-15.36,43.4-38.56,32.55-63.19-4.32-9.8-12.16-15.78-19.74-21.57-9.71-7.41-18.88-14.4-19.13-28.69-.23-13.62,10.02-29.12,19.07-42.79,4.34-6.56,8.44-12.75,11.24-18.43,1.18-2.38,2.42-4.8,3.68-7.27,9.38-18.29,20.01-39.03,11.68-59.39-6.33-15.5-20.63-25.6-34.45-35.37-16.46-11.64-33.48-23.67-37.93-45.01-.93-4.47-1.32-8.47-1.2-12.06h-2.04c-.12,3.73.29,7.87,1.25,12.47Z"/><path class="cls-1" d="M492.59-56.4c14.28,10.09,27.76,19.62,33.93,34.55,10.98,26.6-4.88,50.92-20.22,74.45-10.82,16.59-22,33.75-23.39,51.4-1.23,15.6,6.51,24.77,14.7,34.47,5.91,7,12.02,14.24,14.76,24.3,6.8,25.04-17.18,46.74-34.68,62.59-2.44,2.21-4.78,4.33-6.92,6.34-10.08,9.5-22.11,19.2-34.86,29.47-16.49,13.29-34.14,27.52-49.25,42.88h2.86c14.72-14.74,31.74-28.46,47.66-41.3,12.77-10.29,24.84-20.02,34.97-29.57,2.13-2.01,4.46-4.11,6.89-6.32,17.89-16.2,42.4-38.39,35.28-64.63-2.85-10.5-9.11-17.91-15.16-25.08-7.91-9.37-15.39-18.23-14.23-33,1.35-17.14,11.9-33.32,23.07-50.46,15.63-23.97,31.78-48.75,20.4-76.33-6.39-15.47-20.74-25.62-34.63-35.43-16.48-11.65-33.52-23.69-38.03-44.82-.54-2.51-.87-4.86-1.07-7.09h-2.03c.2,2.37.55,4.86,1.12,7.52,4.67,21.9,22.04,34.18,38.84,46.05Z"/><path class="cls-1" d="M469.76-70.16c.44.32.87.64,1.31.96,2.37,1.74,4.75,3.5,7.11,5.29.95.68,1.89,1.36,2.84,2.04,14.27,10.23,27.76,19.89,34.07,34.8,11.26,26.57-3.97,52.02-18.7,76.63-9.37,15.66-19.07,31.86-21.38,47.87-2.25,15.58,3.83,26.25,10.27,37.55,4.63,8.12,9.42,16.52,10.95,27.06,3.78,26.04-18.63,46.7-36.63,63.29-2.41,2.22-4.75,4.38-6.95,6.47-8.8,8.38-19.15,17.02-30.11,26.16-17.02,14.2-35.35,29.5-50.34,46.09h2.73c14.67-15.97,32.41-30.77,48.91-44.54,10.98-9.16,21.36-17.82,30.21-26.25,2.19-2.09,4.52-4.24,6.92-6.45,18.35-16.92,41.2-37.98,37.26-65.07-1.59-10.92-6.47-19.49-11.2-27.77-6.27-10.99-12.18-21.36-10.03-36.26,2.26-15.61,11.42-30.91,21.12-47.12,14.99-25.05,30.49-50.94,18.83-78.46-6.54-15.43-20.88-25.71-34.76-35.65-16.53-11.85-33.63-24.1-38.19-45.25-.09-.41-.14-.8-.22-1.2h-2.06c.1.55.18,1.07.3,1.63,3.66,17,14.97,28.32,27.73,38.18Z"/><path class="cls-1" d="M453.82-79.99c2.16,1.69,4.34,3.35,6.51,5,3.32,2.53,6.66,5.08,9.92,7.71,14.05,10.34,27.28,20.15,33.77,34.87,11.77,26.71-2.61,53.16-16.51,78.74-8.32,15.3-16.17,29.76-18.91,44.34-2.88,15.32,1.92,27.63,6.56,39.53,3.52,9.02,7.16,18.36,7.67,29.22,1.25,26.63-19.92,46.34-38.6,63.73-2.24,2.09-4.44,4.13-6.55,6.15-7.32,6.99-15.69,14.24-24.55,21.93-18.6,16.13-38.82,33.67-54.03,52.82h2.6c14.99-18.52,34.64-35.58,52.76-51.29,8.88-7.7,17.27-14.98,24.62-22,2.11-2.01,4.3-4.05,6.53-6.13,19-17.69,40.54-37.74,39.25-65.31-.52-11.19-4.22-20.68-7.8-29.86-4.75-12.17-9.23-23.66-6.45-38.42,2.68-14.27,10.46-28.59,18.7-43.75,14.13-26.01,28.75-52.91,16.58-80.52-5.6-12.71-16.34-22.09-27.7-30.69-2.36-1.79-4.74-3.54-7.11-5.29-.44-.32-.87-.64-1.31-.96-15.44-11.37-31.05-23.3-36.36-42.36h-2.09c3.66,13.71,12.31,23.8,22.52,32.54Z"/><path class="cls-1" d="M441.76-87.39c2.72,2.24,5.47,4.44,8.21,6.62,3.12,2.48,6.26,4.99,9.34,7.56,13.97,10.65,27.14,20.73,33.94,35.41,12.52,27.01-.77,54.38-13.62,80.84-6.86,14.12-13.33,27.46-16.18,40.78-3.18,14.87.21,27.85,3.49,40.41,2.55,9.76,5.18,19.85,4.82,30.93-.87,26.67-21.63,46.13-39.94,63.29-2.18,2.04-4.33,4.06-6.42,6.06-5.71,5.47-11.99,11.14-18.63,17.15-20.83,18.84-43.73,39.55-58.91,62.39h2.44c15.05-22.19,37.43-42.44,57.83-60.88,6.65-6.02,12.94-11.7,18.67-17.19,2.08-1.99,4.23-4.01,6.4-6.04,18.6-17.43,39.68-37.19,40.58-64.7.37-11.38-2.3-21.61-4.89-31.51-3.37-12.89-6.55-25.07-3.47-39.48,2.8-13.08,9.22-26.31,16.02-40.32,13.05-26.89,26.55-54.69,13.63-82.58-5.33-11.5-14.7-20.45-24.84-28.62-3.26-2.63-6.61-5.18-9.92-7.71-2.17-1.65-4.35-3.32-6.51-5-11.75-9.17-22.91-19.09-28.88-32.54h-2.21c4.21,9.94,11.1,17.97,19.03,25.13Z"/><path class="cls-1" d="M432.26-92.93c2.55,2.19,5.13,4.36,7.7,6.5,2.07,1.73,4.14,3.46,6.21,5.22.85.68,1.69,1.35,2.54,2.02,13.21,10.51,26.87,21.38,34.02,35.94,13.51,27.51,1.51,55.8-10.1,83.16-5.43,12.8-10.56,24.89-13.29,36.97-3.22,14.23-1.06,27.44,1.03,40.22,1.7,10.38,3.45,21.1,2.33,32.36-2.61,26.18-21.88,44.34-40.52,61.89-2.27,2.13-4.52,4.25-6.71,6.37-3.67,3.53-7.56,7.19-11.56,10.96-22.65,21.34-50,47.11-64.9,75.35h2.29c14.85-27.58,41.7-52.88,63.99-73.88,4.01-3.78,7.9-7.44,11.57-10.98,2.19-2.11,4.43-4.22,6.7-6.35,18.91-17.81,38.46-36.23,41.15-63.17,1.15-11.52-.63-22.38-2.34-32.89-2.15-13.17-4.18-25.61-1.05-39.45,2.69-11.9,7.79-23.91,13.18-36.63,11.79-27.78,23.97-56.51,10.05-84.85-5.64-11.48-15.09-20.63-25.23-29.08-3.08-2.57-6.22-5.07-9.34-7.56-2.74-2.18-5.5-4.38-8.21-6.62-9.06-7.47-17.65-15.45-23.67-25.13h-2.37c4.37,7.35,10.14,13.72,16.53,19.6Z"/><path class="cls-1" d="M438.67-84.87c12.91,10.78,26.25,21.92,33.71,36.18,14.78,28.26,4.18,57.67-6.07,86.11-3.87,10.74-7.87,21.84-10.31,32.53-3.05,13.37-1.94,26.39-.87,38.98.93,10.94,1.9,22.25.09,33.66-3.99,25.21-22.45,42.66-40.31,59.54-2.52,2.38-5.03,4.75-7.48,7.13l-1.38,1.33c-26.74,25.93-59.67,57.88-73.43,93.46h2.17c13.77-34.87,46.27-66.39,72.67-92l1.38-1.33c2.45-2.37,4.95-4.74,7.46-7.11,18.1-17.12,36.82-34.81,40.92-60.7,1.85-11.65.87-23.09-.07-34.15-1.06-12.44-2.16-25.3.82-38.36,2.41-10.56,6.22-21.12,10.24-32.29,10.4-28.85,21.15-58.68,5.96-87.73-6.44-12.31-17.02-22.24-28-31.58-2.06-1.76-4.14-3.49-6.21-5.22-2.57-2.15-5.15-4.31-7.7-6.5-7.08-6.08-13.91-12.44-19.52-19.6h-2.55c7.87,10.42,18.26,19.13,28.47,27.65Z"/><path class="cls-1" d="M428.96-90.3c12.52,10.99,25.46,22.35,33.19,36.2,16.42,29.42,7.22,60.42-1.67,90.4-2.61,8.8-5.31,17.89-7.28,26.74-2.73,12.27-2.48,24.66-2.24,36.65.23,11.52.48,23.44-1.98,35.03-5.05,23.82-22.5,40.36-39.38,56.35-2.92,2.77-5.84,5.53-8.68,8.32-24.48,24.02-58.45,60.48-70.8,99.6-.53,1.68-1.01,3.38-1.51,5.07h2.11c.44-1.49.87-2.99,1.33-4.46,12.21-38.69,45.96-74.9,70.29-98.76,2.83-2.78,5.74-5.53,8.65-8.3,17.1-16.21,34.79-32.97,39.97-57.4,2.51-11.82,2.26-23.85,2.03-35.49-.24-11.87-.49-24.14,2.19-36.17,1.96-8.77,4.64-17.84,7.24-26.6,9.01-30.38,18.32-61.79,1.5-91.96-7.9-14.16-20.97-25.64-33.62-36.74-7.54-6.62-15.17-13.33-21.83-20.69h-2.73c7,7.97,15.16,15.15,23.21,22.22Z"/><path class="cls-1" d="M419.57-95.37c12.04,11.11,24.48,22.59,32.4,35.9,18.65,31.37,10.65,64.98,2.91,97.48-1.42,5.96-2.89,12.12-4.16,18.17-2.3,10.88-2.7,22.2-3.09,33.13-.43,12.23-.88,24.87-4.01,36.75-5.84,22.11-22.13,37.55-37.88,52.48-3.38,3.2-6.87,6.51-10.21,9.84-22.6,22.52-52.22,58.04-64.99,99.36-1.88,6.1-3.52,11.32-5.24,16.3h2.14c1.64-4.8,3.22-9.85,5.03-15.7,12.65-40.92,42.05-76.17,64.48-98.53,3.32-3.31,6.8-6.61,10.17-9.8,15.96-15.13,32.46-30.77,38.44-53.44,3.19-12.1,3.64-24.86,4.08-37.19.38-10.85.78-22.08,3.04-32.79,1.27-6.02,2.74-12.17,4.15-18.12,7.83-32.89,15.93-66.91-3.14-98.99-8.06-13.56-20.62-25.15-32.76-36.36-5.53-5.1-11.11-10.27-16.35-15.66h-2.81c5.65,5.94,11.74,11.58,17.78,17.15Z"/><path class="cls-1" d="M410.47-99.94c11.99,11.6,23.31,22.56,31.3,35.21,22.12,35.04,14.86,71.86,7.18,110.85l-.66,3.35c-1.79,9.14-2.6,18.82-3.39,28.18-1.1,13.21-2.25,26.86-6.17,39.24-6.39,20.18-21.43,34.4-35.97,48.15-3.95,3.74-8.04,7.6-11.91,11.54-25.35,25.79-45.44,58.54-57.05,92.85-.1.36-.21.73-.31,1.08-1.24,4.29-2.3,7.95-3.64,11.33-2.92,8.93-5.49,14.85-9.78,22.2h2.33c4.84-8.48,7.57-15.43,11.2-27.36,11.09-36.41,31.94-71.46,58.71-98.69,3.85-3.91,7.92-7.76,11.86-11.49,14.73-13.93,29.97-28.33,36.52-49.01,3.99-12.59,5.14-26.37,6.25-39.68.78-9.31,1.58-18.93,3.36-27.96l.66-3.35c7.42-37.66,15.1-76.6-7.46-112.32-8.12-12.86-20.06-24.41-31.6-35.58-3.79-3.67-7.6-7.36-11.31-11.12h-2.83c4.16,4.27,8.46,8.45,12.74,12.58Z"/><path class="cls-1" d="M431.51-69.88c23.87,35.79,20.92,75.37,14.19,112.81-1.23,6.83-2.14,14.12-3.01,21.17-1.83,14.74-3.73,29.98-8.69,43.3-6.74,18.1-19.88,30.45-33.8,43.53-4.57,4.29-9.29,8.73-13.71,13.34-20.45,21.35-36.06,48.74-48.58,85.38l-.94,3.2c-1.63,5.5-2.94,9.92-4.45,13.75-.34,1.16-.67,2.29-.98,3.37-3.81,13.21-5.73,19.85-19.12,30.76-1.46,1.19-2.8,2.29-4.04,3.34h3.16c.69-.57,1.41-1.16,2.16-1.77,9.37-7.63,13.37-13.42,16.15-20.43,1.34-3.38,2.4-7.04,3.64-11.33.1-.35.21-.73.31-1.08.42-1.47.87-2.99,1.36-4.63,13.17-43.77,29.95-75.27,52.79-99.13,4.38-4.58,9.08-8.99,13.63-13.26,13.47-12.66,27.4-25.75,34.31-44.29,5.05-13.55,6.96-28.91,8.81-43.76.91-7.35,1.78-14.28,2.99-21.06,6.81-37.86,9.77-77.91-14.5-114.29-8.03-12.05-18.77-22.89-30.13-34.37-2.35-2.37-4.7-4.75-7.04-7.15h-2.82c2.79,2.88,5.61,5.74,8.42,8.58,11.29,11.41,21.96,22.18,29.89,34.07Z"/><path class="cls-1" d="M421.11-74.87c21.73,31.04,28.79,67.51,21.59,111.49-.55,3.37-1.08,6.83-1.62,10.35-2.67,17.48-5.43,35.57-12.07,50.85-6.93,15.95-18.84,27.02-31.45,38.74-5.2,4.83-10.58,9.83-15.52,15.16-20.63,22.27-31.36,49.57-40.02,77.21-1.03,4.02-2.11,8.05-3.26,12.06-1.29,4.49-2.5,8.23-3.81,11.49-5.36,18.14-7.24,24.31-24.98,36.12l-.54.36c-8.94,5.95-14.75,9.82-18.31,15.1h2.53c3.43-4.44,8.8-8.01,16.91-13.41l.53-.35c13.04-8.68,17.78-14.41,21.42-23.69,1.5-3.83,2.82-8.25,4.45-13.75l.94-3.2.2-.67c10.42-35.34,20.27-68.72,45.43-95.88,4.89-5.27,10.24-10.25,15.41-15.05,12.21-11.35,24.83-23.08,31.93-39.42,6.74-15.52,9.53-33.74,12.22-51.35.54-3.51,1.06-6.96,1.61-10.33,7.29-44.52.11-81.47-21.94-112.97-7.81-11.16-17.79-21.62-28.35-32.7-1.2-1.26-2.41-2.53-3.61-3.79h-2.79c1.64,1.74,3.29,3.47,4.93,5.19,10.51,11.02,20.44,21.43,28.16,32.46Z"/><path class="cls-1" d="M410.52-79.66c24.47,33.56,34.34,71.68,28.55,110.25-2.84,18.9-6.91,40.55-15.63,57.78-6.96,13.75-18.16,23.99-28.98,33.89-5.86,5.36-11.92,10.9-17.33,16.99-18.78,21.12-26.02,45.52-32.58,71.41-1.19,6.25-2.51,12.54-4.2,18.77-.98,3.59-2,6.73-3.12,9.51-.14.5-.26,1-.41,1.5-5.79,20.2-9.96,25.28-29.75,36.28-1.91,1.06-3.75,2.05-5.51,3.01-12.37,6.67-21.4,11.59-24.19,24.34h2.08c2.71-11.53,11.03-16.06,23.08-22.56,1.77-.96,3.62-1.95,5.54-3.02,16.02-8.91,22.12-14.09,26.89-26,1.31-3.26,2.53-7,3.81-11.49,1.15-4.01,2.22-8.04,3.26-12.06.91-3.53,1.79-7.04,2.65-10.5,7.08-28.34,13.76-55.12,33.96-77.84,5.34-6.01,11.36-11.52,17.19-16.84,10.96-10.02,22.3-20.39,29.43-34.47,8.85-17.49,12.97-39.33,15.83-58.4,5.87-39.1-4.12-77.74-28.91-111.74-7.45-10.22-16.62-20.14-26.33-30.64-.32-.34-.63-.68-.95-1.03h-2.76c.74.8,1.48,1.6,2.22,2.4,9.67,10.46,18.8,20.33,26.18,30.46Z"/><path class="cls-1" d="M399.68-84.24c28.11,37.31,39.84,74.02,34.88,109.11-5.56,39.25-22.68,57.75-44.35,81.17-6.06,6.55-12.33,13.32-18.89,21.1-17.28,20.48-21.77,43.59-26.05,68.05-.8,7.71-1.9,15.48-3.81,23.13-.48,1.92-1.1,3.7-1.79,5.42-.42,1.72-.82,3.44-1.28,5.15-5.9,21.73-13.09,26.02-34.9,36.33-2.7,1.27-5.34,2.44-7.89,3.57-16.55,7.32-29.65,13.16-30.13,35.27h2.02c.45-20.77,12.42-26.11,28.93-33.41,2.57-1.14,5.23-2.31,7.94-3.59,18.46-8.72,26.99-13.46,32.87-28.12,1.12-2.78,2.14-5.92,3.12-9.51,1.69-6.23,3.02-12.52,4.2-18.77.8-4.2,1.54-8.38,2.26-12.5,4.38-25.16,8.52-48.92,26.06-69.71,6.53-7.74,12.78-14.49,18.83-21.03,21.92-23.68,39.23-42.38,44.87-82.26,5.05-35.64-6.82-72.86-35.27-110.62-6.69-8.88-14.62-17.73-23.03-27.06h-2.73s.07.08.11.12c8.79,9.75,17.1,18.96,24.03,28.16Z"/><path class="cls-1" d="M428.92,19.54c-4.68,33.53-21.33,50.34-40.6,69.8-7.94,8.02-16.16,16.31-24.09,26.36-16.03,20.29-17.96,43.68-19.82,66.31-.35,4.3-.71,8.66-1.17,13.03-.25,4.3-.66,8.58-1.35,12.78-.37,2.27-.91,4.39-1.57,6.38-.26,1.22-.53,2.43-.83,3.64-5.35,21.45-25.22,29.1-44.44,36.49-21.14,8.13-41.11,15.82-42.18,40.52l.47,9.21h2.03l-.47-9.22c1.01-23.28,20.37-30.73,40.88-38.62,18.02-6.93,36.56-14.12,43.89-32.48.68-1.72,1.31-3.5,1.79-5.42,1.91-7.65,3.01-15.42,3.81-23.13.45-4.37.81-8.72,1.17-13.02,1.92-23.35,3.73-45.41,19.39-65.22,7.87-9.95,16.04-18.21,23.94-26.19,19.53-19.72,36.39-36.75,41.17-70.94,7.46-53.42-25.97-90.77-58.31-126.89-1.62-1.81-3.25-3.63-4.87-5.45h-2.71c2.02,2.27,4.05,4.54,6.07,6.8,32.03,35.77,65.14,72.76,57.81,125.26Z"/><path class="cls-1" d="M421.94,14.62c-4.31,29.43-21.11,44.93-38.89,61.34-9.45,8.72-19.22,17.74-27.58,29.24-14.69,20.2-14.35,43.85-14.02,66.72.02,1.35.04,2.71.05,4.08.64,7.46.83,14.92-.1,22.17-.2,1.56-.49,3.04-.84,4.47-.19,1.62-.4,3.24-.67,4.84-4.09,24.92-27.9,31.42-50.94,37.7-23.73,6.47-48.27,13.16-50.33,40.34l1.23,18.53h2.06s-.02-.05-.03-.08l-1.23-18.44c1.95-25.61,24.73-31.83,48.84-38.4,21.6-5.89,43.86-11.97,50.83-32.94.66-1.99,1.2-4.11,1.57-6.38.69-4.2,1.1-8.48,1.35-12.78.44-7.71.34-15.5.23-23.13-.32-22.54-.66-45.85,13.63-65.5,8.24-11.34,17.94-20.29,27.32-28.94,18.05-16.66,35.11-32.39,39.52-62.53,7.52-51.32-27.05-89.36-60.49-126.15-.39-.43-.78-.86-1.17-1.29h-2.74c.8.88,1.6,1.77,2.4,2.65,33.12,36.45,67.37,74.13,59.99,124.5Z"/><path class="cls-1" d="M413.36,10.19c-4.32,26.44-20.82,40.14-38.29,54.64-10.89,9.04-22.14,18.38-30.46,31.15-12.88,19.76-9.92,42.04-7.06,63.6.77,5.82,1.54,11.74,2.01,17.63.2,2,.33,3.99.37,5.98.19,4.98.08,9.92-.55,14.74-3.52,27.16-29.95,32.66-57.96,38.47-27.55,5.73-56.06,11.65-58.98,40.7-1.11,11,1.49,19.63,5.98,26.97h2.32c-4.7-7.25-7.39-15.71-6.28-26.76,2.78-27.57,29.3-33.08,57.38-38.92,25.96-5.39,52.74-10.97,58.72-35.72.35-1.43.63-2.91.84-4.47.94-7.25.75-14.7.1-22.17-.48-5.59-1.21-11.19-1.94-16.7-2.81-21.19-5.72-43.09,6.75-62.22,8.15-12.51,19.29-21.75,30.06-30.69,17.77-14.75,34.55-28.68,38.99-55.87,7.87-48.22-25.92-86.34-59.59-123.03h-2.75c33.75,36.76,68.15,74.85,60.34,122.71Z"/><path class="cls-1" d="M359.25-91.16c21.22,26.53,50.28,62.86,43.71,97.44-4.62,24.3-21.08,36.43-38.51,49.28-12.39,9.13-25.19,18.57-33.16,32.74-10.99,19.53-5.28,40.63.24,61.03,3.6,13.31,7.33,27.07,6.2,40.03-2.53,29.07-32.97,34.01-65.22,39.25-31.88,5.17-64.84,10.52-68.42,41.46-1.63,14.09,3.44,24.79,11.19,33.99h2.7c-8.06-9.17-13.49-19.76-11.87-33.75,3.4-29.42,35.59-34.64,66.73-39.69,31.58-5.13,64.24-10.43,66.91-41.07.18-2.11.23-4.23.19-6.36-.04-1.98-.16-3.98-.37-5.98-.96-9.44-3.55-19.03-6.08-28.39-5.41-20.01-11.01-40.7-.43-59.51,7.76-13.79,20.39-23.1,32.6-32.1,16.98-12.51,34.53-25.46,39.3-50.54,6.75-35.5-22.65-72.25-44.12-99.08-2.34-2.93-4.6-5.75-6.73-8.46-2.96-3.77-6.15-7.65-9.49-11.63h-2.65c3.73,4.42,7.29,8.72,10.55,12.88,2.13,2.71,4.39,5.54,6.74,8.48Z"/><path class="cls-1" d="M344.54-91.74c21.78,26.08,51.6,61.8,45.46,94.75-4.31,23.11-21.52,35-38.17,46.5-13.26,9.16-26.98,18.63-34.08,33.68-8.91,18.87-1.2,38.29,6.26,57.07,5.24,13.2,10.66,26.85,9.97,39.88-1.62,30.2-35.3,35.62-70.95,41.36-35.48,5.71-72.18,11.62-76.25,43.88-2.01,15.88,5.34,27.99,15.67,38.67h2.85c-10.69-10.68-18.5-22.69-16.52-38.41,3.88-30.75,39.82-36.54,74.56-42.14,34.87-5.62,70.94-11.42,72.65-43.26.72-13.47-4.78-27.33-10.1-40.73-7.3-18.38-14.84-37.38-6.31-55.46,6.87-14.56,19.76-23.46,33.4-32.88,16.99-11.73,34.56-23.87,39.01-47.8,6.31-33.88-23.87-70.02-45.9-96.41-3.58-4.28-6.96-8.33-9.95-12.09-1.91-2.4-3.94-4.87-6.03-7.4h-2.63c2.47,2.97,4.84,5.86,7.07,8.66,3.01,3.77,6.39,7.83,9.98,12.12Z"/><path class="cls-1" d="M323.57-93.09c23.12,26.15,54.78,61.97,50.32,94.57-2.48,18.15-17.8,34.37-29.1,44.99-3.97,3.73-8.68,6.97-13.66,10.4-9.89,6.81-20.11,13.84-24.25,25.05-6.55,17.72,1.24,34.33,8.78,50.39,5.88,12.53,11.96,25.49,10.94,38.68-1.86,23.9-32.83,32.44-55.44,38.67-4.78,1.32-9.29,2.56-13,3.82-4.98,1.68-10.91,3.3-17.18,5.01-28.19,7.68-63.28,17.23-67.34,45.69-2.32,16.25,5.68,28.72,16.56,39.88h2.86c-11.22-11.18-19.7-23.55-17.41-39.6,3.88-27.13,38.25-36.49,65.87-44.02,6.31-1.72,12.26-3.34,17.3-5.04,3.65-1.24,8.14-2.47,12.89-3.78,23.19-6.39,54.96-15.15,56.93-40.47,1.07-13.72-5.13-26.92-11.12-39.69-7.7-16.4-14.97-31.9-8.72-48.82,3.92-10.61,13.88-17.46,23.5-24.09,4.83-3.32,9.81-6.76,13.9-10.6,11.53-10.83,27.15-27.4,29.72-46.19,4.58-33.52-27.44-69.74-50.81-96.19-4.57-5.17-8.88-10.04-12.5-14.43-.99-1.2-2-2.42-3.04-3.66h-2.64c1.4,1.68,2.78,3.34,4.11,4.95,3.65,4.41,7.97,9.3,12.55,14.48Z"/><path class="cls-1" d="M290.42-108.2c3.81,4.58,8.32,9.64,13.09,15,23.35,26.2,55.33,62.09,52.04,95.06-1.36,13.62-9.98,29.11-25.63,46.05-3.74,4.04-8.54,7.66-13.19,11.16-8.88,6.69-18.07,13.6-21.38,24.31-5.01,16.21,2.6,30.94,9.96,45.19,6.08,11.78,12.37,23.97,11.19,36.69-2.18,23.52-33.85,33.56-56.98,40.89-4.92,1.56-9.56,3.03-13.26,4.45-5.09,1.95-11.19,3.88-17.65,5.93-28.55,9.04-64.07,20.3-68.61,48.53-2.54,15.78,5,28.01,15.35,39h2.81c-10.65-11-18.66-23.12-16.16-38.68,4.34-27,39.21-38.04,67.23-46.92,6.49-2.06,12.61-4,17.76-5.97,3.64-1.39,8.26-2.86,13.15-4.41,23.67-7.5,56.08-17.78,58.38-42.63,1.23-13.31-5.2-25.76-11.41-37.81-7.5-14.53-14.59-28.25-9.82-43.66,3.12-10.08,12.03-16.79,20.66-23.29,4.72-3.55,9.6-7.23,13.46-11.41,15.95-17.27,24.75-33.16,26.16-47.22,3.38-33.86-28.94-70.13-52.54-96.61-4.76-5.34-9.26-10.39-13.05-14.95l-.23-.27c-.75-.9-1.51-1.82-2.28-2.75h-2.63c1.14,1.37,2.27,2.73,3.36,4.04l.23.27Z"/><path class="cls-1" d="M283.98-92.51c22.65,26.28,53.67,62.27,51.28,96.35-1.37,19.44-15.23,39.71-21.14,47.52-3.43,4.54-8.1,8.53-12.63,12.38-7.73,6.59-15.71,13.4-18.29,23.42-3.77,14.68,3.26,27.8,10.07,40.49,5.95,11.1,12.11,22.58,10.67,34.82-2.7,22.97-34.46,34.33-57.64,42.63-5.05,1.81-9.81,3.51-13.53,5.1-5.18,2.21-11.39,4.45-17.98,6.82-28.42,10.23-63.78,22.96-68.83,50.71-2.66,14.61,3.52,26.07,12.46,36.33h2.72c-9.23-10.24-15.81-21.57-13.19-35.97,4.84-26.6,39.6-39.11,67.53-49.16,6.61-2.38,12.86-4.63,18.09-6.86,3.66-1.57,8.18-3.18,13.42-5.05,23.68-8.47,56.12-20.08,58.97-44.3,1.52-12.88-4.79-24.64-10.89-36.02-6.92-12.92-13.47-25.12-9.89-39.03,2.41-9.4,10.15-15.99,17.64-22.38,4.61-3.93,9.37-7.99,12.93-12.7,6.01-7.95,20.14-28.61,21.54-48.6,2.45-34.91-28.89-71.27-51.77-97.81-4.16-4.83-8.09-9.39-11.57-13.63-1.33-1.62-2.71-3.31-4.13-5.06h-2.61c1.79,2.21,3.53,4.33,5.18,6.34,3.49,4.26,7.43,8.83,11.6,13.67Z"/><path class="cls-1" d="M313.31,7.15c-.76,16.63-8.46,36.75-15.77,49.32-2.99,5.14-7.47,9.62-11.81,13.95-6.52,6.5-13.25,13.23-15.23,22.45-2.82,13.15,3.32,24.88,9.27,36.22,5.51,10.51,11.2,21.38,9.4,33.11-3.43,22.31-34.69,34.8-57.52,43.91-5.39,2.15-10.05,4.02-13.84,5.8-5.24,2.47-11.53,5.01-18.18,7.69-27.84,11.23-62.49,25.21-68.12,52.29-2.67,12.84,1.59,23.07,8.48,32.16h2.58c-7.14-9.03-11.7-19.12-9.08-31.75,5.41-26.02,39.5-39.77,66.9-50.82,6.68-2.7,13-5.24,18.29-7.74,3.73-1.76,8.36-3.61,13.73-5.75,23.28-9.3,55.17-22.03,58.78-45.49,1.9-12.38-3.95-23.55-9.61-34.35-6.04-11.53-11.75-22.43-9.08-34.85,1.85-8.63,8.08-14.86,14.68-21.44,4.43-4.42,9.01-8.99,12.13-14.36,7.43-12.78,15.26-33.28,16.04-50.24,1.94-42.51-26.69-75.71-54.38-107.81-3.42-3.96-6.85-7.94-10.24-11.96h-2.65c3.75,4.46,7.56,8.88,11.35,13.28,27.43,31.8,55.8,64.69,53.89,106.4Z"/><path class="cls-1" d="M290.01,11.53c-.49,17.74-4.29,37.92-9.69,51.4-2.38,5.94-6.63,11.04-10.74,15.97-5.27,6.33-10.73,12.88-12.26,21.25-2.14,11.64,2.86,22.14,7.7,32.3,4.99,10.48,9.7,20.38,7.44,31.57-4.36,21.57-34.6,34.97-56.68,44.76-5.31,2.35-10.31,4.57-14.22,6.6-5.29,2.74-11.58,5.57-18.25,8.56-26.87,12.06-60.31,27.07-66.62,53.33-2.53,10.56-.33,19.18,4.14,26.79h2.4c-4.65-7.51-7.05-15.97-4.57-26.32,6.07-25.3,39.01-40.08,65.47-51.96,6.69-3,13.01-5.84,18.35-8.6,3.85-2,8.84-4.21,14.11-6.54,22.48-9.96,53.28-23.61,57.84-46.21,2.39-11.85-2.68-22.52-7.59-32.84-4.91-10.32-9.55-20.07-7.54-31.06,1.44-7.85,6.49-13.9,11.83-20.31,4.21-5.06,8.57-10.28,11.06-16.52,5.48-13.68,9.34-34.13,9.83-52.1,1.17-42.57-24.91-76.08-50.14-108.5-4.07-5.23-8.11-10.42-12.01-15.6h-2.52c4.24,5.67,8.59,11.28,12.93,16.85,25,32.13,50.86,65.36,49.71,107.2Z"/><path class="cls-1" d="M229.98-88.24c25.3,36.84,36.3,69.2,35.66,104.91-.06,3.52-.07,7.21-.08,11-.04,13.99-.08,29.85-2.96,42.7-1.56,6.93-5.5,12.75-9.32,18.39-4.09,6.03-8.32,12.27-9.57,19.84-1.69,10.2,1.98,19.58,5.53,28.66,3.94,10.06,7.66,19.56,4.83,30.23-5.52,20.79-34.22,34.88-55.17,45.17-5.45,2.68-10.6,5.2-14.7,7.53-5.32,3.02-11.57,6.13-18.18,9.43-25.55,12.72-57.34,28.55-64.42,53.92-2.21,7.9-1.72,14.6.37,20.54h2.14c-2.17-5.77-2.72-12.24-.56-19.99,6.84-24.5,38.19-40.11,63.37-52.65,6.64-3.31,12.91-6.43,18.28-9.48,4.05-2.3,9.17-4.81,14.59-7.48,21.3-10.46,50.48-24.79,56.24-46.47,3-11.31-1.01-21.57-4.9-31.49-3.45-8.82-7.02-17.94-5.42-27.59,1.18-7.13,5.1-12.91,9.25-19.03,3.92-5.79,7.98-11.77,9.62-19.08,2.93-13.07,2.97-29.04,3.01-43.14.01-3.77.02-7.45.08-10.97.64-36.16-10.47-68.88-36.02-106.09-3.11-4.54-6.43-9.16-9.93-14.05-2.14-2.98-4.3-6.01-6.47-9.08h-2.48c2.44,3.47,4.89,6.89,7.3,10.26,3.5,4.89,6.8,9.5,9.91,14.02Z"/><path class="cls-1" d="M218.53-79.69c21.49,35.16,22.66,65.7,21.97,101.98-.18,9.17.95,18.42,2.04,27.37,1.15,9.46,2.35,19.25,1.95,28.79-.34,8.24-3.8,14.57-7.47,21.26-3.03,5.54-6.17,11.27-7.29,18.09-1.46,8.87.79,17.17,2.96,25.19,2.64,9.74,5.13,18.95,1.57,29.16-6.97,19.98-32.57,33.94-53.13,45.16-5.59,3.05-10.88,5.93-15.25,8.66-5.33,3.31-11.46,6.71-17.96,10.3-23.94,13.24-53.73,29.71-61.7,54.11-1.67,5.1-2.21,9.6-1.94,13.68h2.02c-.27-3.88.24-8.16,1.84-13.05,7.72-23.65,37.13-39.91,60.75-52.97,6.52-3.6,12.68-7.01,18.05-10.35,4.32-2.69,9.58-5.56,15.15-8.6,20.87-11.38,46.84-25.55,54.07-46.27,3.77-10.8,1.08-20.74-1.52-30.35-2.12-7.82-4.31-15.9-2.92-24.34,1.07-6.48,3.98-11.81,7.07-17.44,3.62-6.61,7.36-13.44,7.72-22.15.4-9.71-.8-19.57-1.97-29.11-1.08-8.88-2.2-18.06-2.03-27.09.7-36.61-.49-67.44-22.27-103.07-4.78-7.82-10.23-15.64-16.01-23.91-1.82-2.61-3.65-5.23-5.46-7.86h-2.46c2.08,3.02,4.17,6.03,6.26,9.02,5.76,8.25,11.19,16.04,15.94,23.81Z"/><path class="cls-1" d="M207.83-70.54c13.72,26.38,11.59,47.45,9.11,71.85-.86,8.46-1.74,17.21-2.06,26.79-.41,12.38,2.76,23.56,5.83,34.38,2.2,7.76,4.47,15.79,5.45,24.28,1.12,9.72-1.96,16.86-5.22,24.41-2.15,4.97-4.37,10.1-5.48,16.2-1.39,7.62-.57,14.77.23,21.69,1.1,9.57,2.14,18.61-2.38,28.52-12.22,26.79-41.47,42.14-69.77,56.98-30.3,15.9-61.64,32.33-72.91,62.97-.85,2.31-1.47,4.47-1.9,6.52h2.08c.41-1.83.96-3.75,1.72-5.82,11-29.91,41.99-46.16,71.95-61.88,28.59-15,58.16-30.51,70.67-57.93,4.75-10.42,3.63-20.17,2.55-29.59-.78-6.77-1.58-13.77-.25-21.09,1.07-5.87,3.25-10.9,5.35-15.76,3.38-7.81,6.56-15.18,5.38-25.44-1-8.66-3.3-16.77-5.52-24.61-3.16-11.16-6.14-21.69-5.75-33.76.31-9.51,1.19-18.23,2.05-26.65,2.5-24.73,4.67-46.08-9.33-72.99-5.98-11.49-13.91-22.78-21.58-33.7-1.71-2.44-3.43-4.89-5.14-7.35h-2.47c1.97,2.86,3.96,5.69,5.95,8.52,7.63,10.86,15.53,22.1,21.44,33.47Z"/><path class="cls-1" d="M197.5-61.2c9.57,23.04,4.36,40.82-1.15,59.64-3.21,10.97-6.53,22.32-7.26,35.41-.81,14.53,4.47,26.3,10.07,38.76,3.2,7.12,6.51,14.49,8.56,22.41,2.97,11.5.32,19.25-2.75,28.22-1.44,4.22-2.94,8.58-4.01,13.73-1.23,5.92-1.65,11.46-2.06,16.82-.76,10-1.47,19.45-7.43,29.6-13.99,23.82-40.18,39.88-65.51,55.41-28.62,17.55-58.18,35.71-70.79,65.25h2.23c12.55-28.48,41.54-46.3,69.62-63.52,25.54-15.67,51.95-31.86,66.2-56.11,6.2-10.56,6.93-20.23,7.71-30.47.4-5.3.81-10.77,2.02-16.56,1.05-5.02,2.52-9.32,3.94-13.49,3.18-9.28,5.92-17.29,2.79-29.38-2.09-8.09-5.43-15.53-8.67-22.73-5.49-12.23-10.68-23.78-9.9-37.81.72-12.86,4-24.09,7.18-34.95,5.61-19.17,10.91-37.29,1.07-60.99-6.33-15.24-16.33-28.89-26-42.08-2.05-2.8-4.12-5.62-6.15-8.47h-2.49c2.32,3.25,4.67,6.47,7.01,9.67,9.6,13.1,19.53,26.64,25.77,41.66Z"/><path class="cls-1" d="M187.18-52.08c6.48,21.52-1.69,37.15-10.34,53.69-6.01,11.5-12.23,23.39-13.43,37.64-1.35,15.93,6.78,29.37,14.64,42.38,4.12,6.83,8.39,13.88,11.22,21.21,5.55,14.35,3.04,22.79-.75,35.56-.72,2.43-1.48,4.99-2.23,7.76-.51,1.9-1,3.74-1.48,5.54-3.68,13.93-6.59,24.94-15.81,37.42-14.76,19.98-37.3,36.18-59.09,51.85-25.61,18.42-51.98,37.43-66.94,63.09h2.35c14.86-24.78,40.68-43.4,65.77-61.44,21.92-15.76,44.58-32.06,59.53-52.3,9.45-12.79,12.41-23.96,16.14-38.11.48-1.8.96-3.64,1.47-5.53.75-2.75,1.5-5.3,2.22-7.71,3.77-12.7,6.49-21.88.69-36.87-2.9-7.49-7.21-14.62-11.38-21.52-8.04-13.31-15.64-25.89-14.35-41.16,1.17-13.84,7.29-25.54,13.21-36.87,8.46-16.17,17.2-32.9,10.49-55.21-5.5-18.29-17.4-33.53-28.91-48.27-2.98-3.82-5.97-7.66-8.88-11.58h-2.52c3.2,4.36,6.51,8.61,9.81,12.83,11.39,14.6,23.17,29.69,28.57,47.61Z"/><path class="cls-1" d="M99.08,239.95c17.9-14.89,34.8-28.96,48.59-44.26,11.84-13.13,19.85-23.96,25.76-40.47,6.62-18.46,7.99-28.97-.68-46.27-3.43-6.86-8.34-13.48-13.54-20.48-10.27-13.86-20.9-28.19-19.08-44.24,1.62-14.31,10.61-25.89,19.3-37.09,11.33-14.59,23.04-29.69,19.06-51.11-3.63-19.57-16.73-35.48-30.59-52.33-4.37-5.31-8.79-10.69-12.92-16.23h-2.52c4.4,6,9.16,11.79,13.87,17.51,13.69,16.64,26.62,32.35,30.16,51.41,3.81,20.53-7.11,34.61-18.67,49.5-8.86,11.42-18.03,23.23-19.72,38.1-1.91,16.84,8.96,31.5,19.46,45.68,5.14,6.94,10,13.49,13.35,20.18,8.33,16.64,7,26.8.58,44.68-5.8,16.19-13.69,26.85-25.36,39.79-13.69,15.19-30.54,29.21-48.38,44.06-24.4,20.3-49.46,41.2-66.36,65.66h2.47c16.74-23.74,41.29-44.21,65.19-64.1Z"/><path class="cls-1" d="M104.62,218.57c6.9-6.33,13.62-12.48,19.98-18.46,2.9-2.72,5.87-5.31,8.74-7.82,9.98-8.71,19.4-16.93,25.23-29.67,12.81-27.98-3.74-46.96-19.75-65.31-13.35-15.31-25.97-29.77-23.26-49.19,2.06-14.85,13.27-25.55,25.14-36.87,13.82-13.18,28.1-26.82,26.46-47.56-1.11-14.05-12.06-26.31-22.65-38.17-4.09-4.58-7.96-8.91-11.07-13.16l-1.31-1.8c-5.5-7.49-11.07-15.11-15.95-23.09h-2.37c5.07,8.43,10.92,16.43,16.69,24.29l1.31,1.79c3.17,4.33,7.07,8.69,11.19,13.31,10.37,11.61,21.09,23.61,22.14,36.98,1.56,19.78-12.37,33.08-25.84,45.93-11.6,11.06-23.59,22.51-25.75,38.06-2.83,20.34,10.68,35.82,23.74,50.8,16.3,18.69,31.7,36.34,19.43,63.13-5.65,12.34-14.92,20.43-24.73,28.99-2.89,2.52-5.87,5.12-8.79,7.87-6.36,5.97-13.07,12.12-19.97,18.44-28.83,26.42-60.82,55.79-83.62,86.98h2.5c22.62-30.58,54.1-59.46,82.49-85.48Z"/><path class="cls-1" d="M101.68,203.14c4.56-3.73,9.77-7.02,14.81-10.21,10.37-6.57,21.1-13.36,27.24-24.45,15.51-28-4.55-48.19-23.95-67.72-15.85-15.95-30.81-31.02-27.81-49.92,2.47-15.55,16.03-25.74,30.38-36.53,15.82-11.9,32.17-24.2,32.38-44.39.14-13.82-11.81-26.67-22.35-38-3.98-4.28-7.73-8.31-10.66-12.18l-1.46-1.92c-7.38-9.71-14.9-19.63-20.84-30.32h-2.33c6.07,11.18,13.89,21.47,21.55,31.55l1.46,1.92c3,3.95,6.78,8.02,10.8,12.33,10.28,11.06,21.94,23.59,21.81,36.6-.2,19.19-16.14,31.19-31.57,42.79-14.04,10.56-28.55,21.48-31.16,37.83-3.17,19.92,12.86,36.06,28.37,51.67,19.74,19.87,38.39,38.64,23.62,65.31-5.89,10.64-16.4,17.29-26.56,23.72-5.09,3.22-10.35,6.55-15,10.36-31.3,25.6-66.25,64.03-93.7,102.48h2.49c27.22-37.91,61.63-75.68,92.49-100.92Z"/><path class="cls-1" d="M79.2,204.33c5.61-4.16,12.66-7.42,19.48-10.57,11.63-5.37,23.65-10.93,30.31-21.4,17.56-27.6-5.48-49.05-27.76-69.8-17.84-16.61-34.69-32.3-31.55-50.53,2.8-16.25,18.23-25.91,34.57-36.13,17.25-10.79,35.09-21.96,36.58-41.68,1.01-13.42-11.06-26.08-21.7-37.25-3.84-4.03-7.47-7.84-10.26-11.44l-1.46-1.88c-8.88-11.44-17.97-23.16-24.3-36.19h-2.26c6.43,13.56,15.81,25.65,24.96,37.43l1.46,1.88c2.85,3.67,6.51,7.52,10.39,11.59,10.35,10.87,22.09,23.19,21.15,35.71-1.41,18.7-18.81,29.58-35.63,40.11-16,10.01-32.54,20.36-35.49,37.51-3.32,19.31,14.72,36.11,32.16,52.35,21.67,20.18,44.08,41.05,27.43,67.23-6.34,9.97-18.08,15.4-29.45,20.65-6.91,3.19-14.06,6.5-19.84,10.78-31.83,23.57-58.86,61.26-82.93,97.21v3.65c24.4-36.57,51.83-75.3,84.13-99.23Z"/><path class="cls-1" d="M57.39,203.27c6.33-4.27,14.53-7.07,23.22-10.03,13.12-4.47,26.69-9.1,33.79-19.32,18.9-27.23-6.46-49.71-30.98-71.45-19.32-17.13-37.57-33.31-34.44-50.98,2.97-16.8,20.41-26.41,37.28-35.71,18.04-9.95,36.7-20.23,38.86-39.51,1.44-12.87-10.31-25.12-20.68-35.93-3.69-3.84-7.17-7.47-9.82-10.87l-1.26-1.61c-9.83-12.6-19.92-25.57-25.99-40.37h-2.18c6.13,15.37,16.49,28.68,26.57,41.62l1.26,1.62c2.71,3.48,6.23,7.15,9.95,11.03,10.06,10.49,21.46,22.38,20.13,34.31-2.05,18.23-20.24,28.26-37.83,37.96-17.28,9.53-35.15,19.38-38.29,37.13-3.33,18.79,15.34,35.34,35.1,52.85,23.86,21.16,48.54,43.03,30.66,68.78-6.72,9.68-19.97,14.19-32.78,18.56-8.43,2.87-17.15,5.85-23.7,10.27-24.73,16.7-43.7,43.51-61.19,71.65v3.85c17.85-28.96,37.1-56.8,62.32-73.82Z"/><path class="cls-1" d="M36.52,199.53c7.02-4.38,16.55-6.78,26.65-9.33,14.39-3.63,29.27-7.38,36.86-17.42,20.04-26.52-7.13-50.08-33.39-72.86-20.25-17.56-39.38-34.15-36.48-51.04,2.93-17.05,20.8-26.35,38.07-35.34,18.09-9.42,36.8-19.15,39-37.94,1.43-12.17-9.56-23.79-19.26-34.04-3.48-3.69-6.78-7.17-9.27-10.43l-.83-1.08c-10.07-13.16-20.43-26.73-25.64-42.57h-2.13c5.24,16.42,15.85,30.32,26.15,43.8l.83,1.08c2.56,3.35,5.89,6.87,9.41,10.59,9.39,9.93,20.03,21.18,18.72,32.42-2.08,17.72-19.49,26.78-37.92,36.37-17.72,9.22-36.04,18.76-39.13,36.8-3.09,18.01,16.46,34.96,37.15,52.91,25.56,22.17,52,45.09,33.1,70.1-7.16,9.47-21.68,13.14-35.73,16.68-10.25,2.59-19.94,5.03-27.23,9.57-16.21,10.11-29.09,25.17-40.38,42.26v3.7c11.56-17.95,24.74-33.81,41.45-44.24Z"/><path class="cls-1" d="M16.86,192.66c7.61-4.44,18.31-6.41,29.65-8.49,15.48-2.85,31.49-5.79,39.43-15.65,20.75-25.76-7.53-50.24-34.89-73.91C30.48,76.82,11.05,60,13.5,43.94c2.58-16.92,19.87-26.18,36.59-35.14C67.37-.46,85.25-10.03,86.79-28.19c.95-11.24-8.78-21.99-17.37-31.48-3.24-3.58-6.3-6.96-8.64-10.19-9.52-13.13-19.33-26.67-23.24-42.66h-2.07c3.91,16.57,13.94,30.43,23.69,43.88,2.37,3.28,5.47,6.7,8.75,10.32,8.31,9.18,17.73,19.58,16.86,29.95-1.44,17.06-18.05,25.96-35.64,35.38C31.97,16.21,14.22,25.71,11.49,43.64c-2.62,17.17,17.22,34.33,38.23,52.51,26.63,23.04,54.16,46.86,34.64,71.1-7.47,9.27-23.1,12.14-38.22,14.92-11.01,2.02-22.39,4.12-30.31,8.73-7.74,4.52-14.58,10.26-20.77,16.86v2.99c6.44-7.16,13.61-13.34,21.79-18.11Z"/><path class="cls-1" d="M31.06,175.24c16.14-2.36,32.83-4.79,40.91-14.57,20.91-25.31-7.76-50.35-35.48-74.57C16.1,68.29-3.15,51.47-1.23,36,.8,19.65,16.77,10.29,32.21,1.24c15.9-9.32,32.34-18.95,32.82-36.28.28-10.1-7.97-19.8-15.25-28.35-3-3.52-5.83-6.85-7.94-10.02-7.54-11.28-16.02-23.97-18.62-39.11h-2.05c2.6,15.71,11.27,28.7,18.98,40.23,2.18,3.26,5.05,6.64,8.08,10.2,7.04,8.28,15.03,17.67,14.77,26.99-.44,16.2-15.68,25.13-31.82,34.59C15.32,8.79-1.09,18.4-3.24,35.75c-2.05,16.54,17.59,33.7,38.39,51.87,26.99,23.58,54.9,47.96,35.25,71.75-7.58,9.18-23.88,11.55-39.64,13.85-11.73,1.71-23.86,3.48-32.12,8.12-1.22.69-2.41,1.41-3.58,2.16v2.42c1.49-.99,3.01-1.93,4.57-2.81,7.93-4.46,19.87-6.2,31.42-7.89Z"/><path class="cls-1" d="M57.46,150.63c19.96-26.46-8.33-50.66-35.7-74.06-9.93-8.49-19.59-16.76-26.69-24.87v3.03c3.96,4.33,8.57,8.69,13.51,13.09,4.81,4.07,9.63,8.16,14.21,12.29,25.88,22.17,51.32,45.09,33.05,69.29-7.37,9.76-23.15,12.77-38.41,15.67-8.04,1.53-15.75,3.02-22.36,5.39v2.14c6.6-2.46,14.5-3.98,22.74-5.54,15.64-2.98,31.81-6.05,39.65-16.44Z"/><path class="cls-1" d="M49.91-40.97c.57-12.22-9.09-24.52-19.31-37.55-8.64-11.02-17.53-22.37-20.31-34h-2.08c2.76,12.23,11.9,23.92,20.8,35.25,9.98,12.72,19.41,24.74,18.88,36.21-.71,15.41-15.75,23.69-31.68,32.45C8.76-4.5,1.22-.33-4.93,4.69v2.66C1.29,1.94,9.3-2.49,17.19-6.83c15.71-8.65,31.96-17.6,32.72-34.14Z"/><path class="cls-1" d="M43.54,140.5c15.33-22.18-.12-41.73-20.76-60.38-4.57-4.13-9.4-8.23-14.21-12.29-.09-.08-.19-.16-.28-.24-4.54-3.84-9.03-7.64-13.23-11.4v2.31c.3.25.6.51.9.76,6.07,5.13,12.18,10.31,17.73,15.59,23.47,20.13,44.39,41.05,28.18,64.5-7.06,10.21-22.15,13.75-36.74,17.16-3.45.81-6.82,1.6-10.07,2.47v2.09c3.38-.91,6.92-1.75,10.53-2.59,14.97-3.5,30.44-7.13,37.94-17.98Z"/><path class="cls-1" d="M30.11,130.46c13.27-20.98,1.26-38.83-16.41-55.62-5.56-5.28-11.67-10.45-17.73-15.59-.3-.25-.6-.51-.9-.76v2.26c1.86,1.66,3.68,3.34,5.45,5.03,22.62,19.36,43.07,39.58,27.88,63.6-6.45,10.2-19.98,14.28-33.33,18.03v2.11c13.89-3.9,28.09-8.06,35.04-19.05Z"/><path class="cls-1" d="M17.02,120.7c12.28-21.34.45-38.74-16.51-54.92-1.77-1.69-3.59-3.36-5.45-5.03v2.73c18.42,16.72,32.69,34.5,20.2,56.2-4.25,7.37-11.77,11.78-20.2,15.2v2.18c9.08-3.59,17.28-8.25,21.96-16.37Z"/><path class="cls-1" d="M4.17,111.41c9.43-18.13,2.78-32.95-9.1-46.46v3.15c10.39,12.49,15.75,26.13,7.3,42.37-1.84,3.54-4.35,6.44-7.3,8.92v2.61c3.69-2.84,6.85-6.26,9.1-10.59Z"/></g></g></svg>