<?xml version="1.0" encoding="UTF-8"?><svg id="Layer_1" xmlns="http://www.w3.org/2000/svg" xmlns:xlink="http://www.w3.org/1999/xlink" viewBox="0 0 24.64 32"><defs><style>.cls-1{fill:none;}.cls-2{clip-path:url(#clippath);}.cls-3{fill:#7f7b74;fill-rule:evenodd;}</style></defs><path class="cls-3" d="M19.18,8h.23c1.75,0,3.23,1.32,3.41,3.07l1.81,17.14c.1.97-.21,1.93-.86,2.65-.65.72-1.58,1.13-2.55,1.13H3.43c-.97,0-1.9-.41-2.55-1.13-.65-.72-.96-1.69-.86-2.65L1.82,11.07c.18-1.75,1.65-3.07,3.41-3.07h.23v-2.29c0-3.08,3.01-5.71,6.86-5.71s6.86,2.64,6.86,5.71v2.29ZM7.75,8h9.14v-2.29c0-1.97-2.11-3.43-4.57-3.43s-4.57,1.46-4.57,3.43v2.29Z"/><g class="cls-2"></g></svg>